<?xml version="1.0" encoding="UTF-8"?>
<svg id="b" data-name="Layer 2" xmlns="http://www.w3.org/2000/svg" viewBox="0 0 1301.91 1203.37">
  <g id="c" data-name="Layer 1">
    <g>
      <g>
        <path d="M515.1,727.36c-1,0-2.31-.44-3.92-1.31-.62-.25-1.25-.69-1.87-1.31-1.5-1.49-2.24-3.49-2.24-5.98,0-1.12.31-2.87.93-5.23.37-1.75,1.25-4.79,2.62-9.15.5-1.49,1.5-2.8,2.99-3.92,11.09-28.77,26.31-71.47,45.68-128.08,19.37-56.61,37.83-114.62,55.4-174.04,10.09-34.38,17.25-59.29,21.49-74.73-49.08,8.59-95.41,18.25-139.01,28.96-39.86,9.71-71.5,18.25-94.91,25.6-10.21,29.52-18.44,56.73-24.66,81.65-6.23,24.91-9.97,45.03-11.21,60.35-.38,4.23-.56,8.1-.56,11.58,0,4.49.31,8.1.93,10.84.25,1.24.5,2.24.75,2.99,2.99-1.12,6.73-3.92,11.21-8.41,16.57-16.69,39.36-50.76,68.38-102.2.38-.62.81-1.18,1.31-1.68,1.61-1.62,3.61-2.43,5.98-2.43,2.49,0,4.67.87,6.54,2.62,1.62,1.62,2.43,3.48,2.43,5.6,0,1.5-.37,2.93-1.12,4.3-24.16,42.47-43.97,73.3-59.41,92.48-4.11,5.11-7.91,9.47-11.4,13.08-6.1,5.98-11.65,10.02-16.63,12.14-2.74,1.24-5.42,1.87-8.03,1.87-4.23,0-7.79-1.49-10.65-4.49-2.99-2.99-5.04-7.41-6.16-13.26-.75-3.99-1.12-8.66-1.12-14.01,0-3.73.19-7.91.56-12.52,1.37-15.32,4.86-34.6,10.46-57.83,5.6-23.23,13.01-48.55,22.23-75.95-76.35,25.53-133.77,52.75-172.26,81.65-1.37,1-2.99,1.49-4.86,1.49-2.99,0-5.29-1.06-6.91-3.17-1-1.37-1.5-3.06-1.5-5.05,0-2.99,1.06-5.29,3.18-6.91,31.51-24.04,76.79-47.15,135.83-69.32,22.05-8.22,40.04-14.57,53.99-19.06,18.31-51.94,38.12-99.46,59.41-142.56,6.97-14.45,14.29-28.65,21.95-42.6,7.66-13.95,16.44-28.93,26.34-44.94,9.9-16,20.58-31.54,32.04-46.62,11.46-15.07,22.98-28.33,34.56-39.8,28.65-28.65,56.11-44.59,82.4-47.83,1.62-.12,3.36-.19,5.23-.19,10.59,0,19.43,3.55,26.53,10.65,4.36,4.24,7.85,9.47,10.46,15.69,5.6,13.2,8.41,31.7,8.41,55.49,0,28.4-3.92,63.9-11.77,106.5-5.98,31.89-14.64,69.94-25.97,114.16,1.62-.25,4.48-.71,8.59-1.4,4.11-.68,7.22-1.15,9.34-1.4,1.62-.25,2.68-.37,3.17-.37,1.99,0,3.8.81,5.42,2.43,1.49,1.37,2.43,2.99,2.8,4.86v1.5c0,2.12-.81,3.99-2.43,5.6-.5.5-.97.91-1.4,1.21-.44.31-1.03.59-1.77.84-.75.25-1.28.41-1.59.47-.31.06-1.06.19-2.24.37-1.18.19-2.03.34-2.52.47-8.1,1.37-15.51,2.62-22.24,3.74-6.72,25.29-16.07,58.17-28.02,98.65-21.8,72.37-44.47,142.18-68.01,209.45-9.97,27.65-18.19,50.01-24.66,67.08-4.11,11.46-7.17,19.31-9.16,23.54-1.25,2.49-2.37,4.3-3.36,5.42-.37.25-.93.62-1.68,1.12-1.62.87-3.05,1.31-4.3,1.31ZM652.06,16.82c-.37,0-1.03.06-1.96.19-.93.13-1.65.19-2.15.19-22.54,2.74-46.52,16.88-71.93,42.41-10.84,10.84-21.8,23.57-32.88,38.21-11.09,14.64-21.46,29.83-31.11,45.59-9.65,15.76-18.22,30.52-25.69,44.28-7.47,13.77-14.76,27.75-21.86,41.95-20.05,41.23-38.24,84.08-54.56,128.54,22.92-6.85,50.57-14.26,82.96-22.23,47.95-11.71,97.22-21.92,147.79-30.64,22.05-84.82,34.87-151.58,38.49-200.29.62-8.97.94-17.31.94-25.04,0-10.96-.69-20.49-2.06-28.59-1.62-10.96-4.42-19.37-8.41-25.22-1-1.5-1.99-2.8-2.99-3.92-3.74-3.61-8.6-5.42-14.57-5.42Z"/>
        <path d="M733.89,76.42c-2.62,0-4.77-.81-6.45-2.43-1.68-1.62-2.52-3.61-2.52-5.98,0-1.37.31-2.55.93-3.55,4.49-8.97,8.1-14.88,10.84-17.75,2.49-2.36,5.17-3.55,8.03-3.55s4.98.87,6.72,2.62c1.87,1.87,2.99,4.48,3.36,7.84v2.99c0,1.99-.19,4.92-.56,8.78-.25,2.74-2.37,13.58-6.35,32.51-2.99,14.08-11.15,48.83-24.47,104.25-22.05,90.06-37.25,156.82-45.59,200.29-5.48,29.14-8.97,52.56-10.46,70.25-.62,6.35-.93,12.08-.93,17.19,0,1.99.07,3.86.19,5.6,2.49-3.36,5.29-7.41,8.41-12.14,2.36-3.49,14.39-22.42,36.06-56.8,9.84-15.32,17.34-27,22.51-35.03,5.17-8.03,12.05-18.43,20.64-31.2,8.6-12.77,16.47-23.64,23.64-32.6,7.16-8.97,13.92-16.63,20.27-22.98,2.36-2.36,4.61-4.49,6.73-6.35,1.25-1.12,2.68-1.8,4.3-2.05.5-.12.99-.19,1.49-.19,2.49,0,4.67.87,6.54,2.62,1.12,1.25,1.8,2.74,2.05,4.48.12.5.19,1,.19,1.49,0,2.74-1,4.98-2.99,6.73-1.99,1.75-4.11,3.73-6.35,5.98-6.35,6.35-13.27,14.29-20.74,23.82-7.47,9.53-15.92,21.36-25.32,35.5-9.41,14.13-16.69,25.19-21.86,33.16-5.17,7.97-13.05,20.3-23.64,36.99-13.83,21.92-23.89,37.61-30.17,47.08-6.29,9.46-11.43,16.19-15.41,20.18-3.86,3.86-7.54,5.79-11.02,5.79h-.38c-2.24,0-4.36-1-6.35-2.99-1.24-1.12-2.12-2.43-2.62-3.92-2.12-5.23-3.18-12.77-3.18-22.61,0-3.61.13-7.66.38-12.14,1-17.56,4.23-41.1,9.71-70.62,7.6-41.35,23.36-111.23,47.27-209.63,13.45-55.43,21.36-88.31,23.73-98.65,1.99-8.97,3.61-16.69,4.86-23.17-.5.13-1,.19-1.49.19Z"/>
        <path d="M844.68,251.11c4.11,0,7.47,1.65,10.09,4.95,2.62,3.3,3.92,7.07,3.92,11.3,0,1.12-.06,2.31-.19,3.55-.75,4.36-2.74,9.22-5.98,14.57-3.99,6.48-9.84,13.7-17.56,21.67-1,1-1.93,1.99-2.8,2.99-8.72,8.59-17.31,16.32-25.78,23.17-2.87,8.59-4.42,15.63-4.67,21.11v.93c0,3.24.5,5.36,1.49,6.35l.19.19c.87.37,2.05.56,3.55.56,2.36,0,5.23-.5,8.6-1.5,7.6-1.99,17.31-6.1,29.14-12.33,24.16-12.71,49.51-29.08,76.04-49.14,1.37-.99,2.99-1.49,4.86-1.49,2.99,0,5.29,1.06,6.91,3.18.99,1.37,1.49,3.05,1.49,5.05,0,2.99-1.06,5.29-3.18,6.91-17.31,13.2-35.31,25.53-53.99,36.99-17.81,10.84-32.64,18.62-44.47,23.36-10.09,3.98-18.5,5.98-25.22,5.98s-12.21-1.87-16.07-5.6c-3.99-4.11-5.98-10.15-5.98-18.12,0-1.99.07-3.86.19-5.6.87-7.72,2.74-15.75,5.6-24.1,0-.38.07-.68.19-.94,4.36-12.33,10.03-24.57,17-36.71,6.97-12.14,13.83-21.58,20.55-28.3,4.48-4.61,8.59-7.41,12.33-8.41,1.24-.37,2.49-.56,3.73-.56ZM827.12,290.72c5.35-6.1,9.28-11.34,11.77-15.69.25-.38.5-.81.75-1.31-1.12,1.25-2.93,3.49-5.42,6.73-2.37,3.12-4.73,6.54-7.1,10.28Z"/>
        <path d="M1005.08,260.17c1.68,1.68,2.52,3.64,2.52,5.88,0,2.5-.94,4.67-2.8,6.54-3.74,3.49-7.72,7.29-11.96,11.4-14.32,14.33-27.03,28.34-38.12,42.04,1.25,6.98,2.68,12.64,4.3,17,1.37,3.99,2.86,6.73,4.48,8.22.25.37.56.62.93.75,1.12,0,2.62-.31,4.49-.94,2.62-.87,5.79-2.18,9.53-3.92,5.48-2.74,14.76-7.91,27.84-15.51h.19c22.05-12.45,38.61-20.99,49.7-25.6,15.07-6.23,28.02-9.34,38.86-9.34,2.24,0,4.3.87,6.16,2.62,1.62,1.75,2.43,3.67,2.43,5.79,0,2.24-.87,4.23-2.62,5.98-1.75,1.75-3.73,2.62-5.98,2.62-8.85,0-20.12,2.93-33.82,8.78-10.84,4.48-26.28,12.58-46.34,24.29-14.82,8.59-25.53,14.38-32.13,17.38-7.6,3.36-13.77,5.04-18.5,5.04-2.87,0-5.73-.81-8.6-2.43-1.49-.99-2.93-2.18-4.3-3.55-4.36-4.23-7.85-10.77-10.46-19.62-7.72,10.84-13.83,20.55-18.31,29.15-4.98,10.09-7.79,18.74-8.41,25.97,0,2.24-.87,4.2-2.61,5.88-1.75,1.68-3.67,2.52-5.79,2.52h-.38c-1.87,0-3.61-.75-5.23-2.24-.99-1-1.74-2.18-2.24-3.55-.5-1.25-.75-2.43-.75-3.55v-.38c.87-10.09,4.61-21.55,11.21-34.38,6.48-12.58,15.82-26.59,28.03-42.04-.13-1.37-.19-2.3-.19-2.8-1.75-14.07-2.62-25.78-2.62-35.12,0-2.62.93-4.86,2.8-6.73,1.49-1.49,3.24-2.24,5.23-2.24h.37c2.24,0,4.23.87,5.98,2.62,1.74,1.75,2.61,3.73,2.61,5.98,0,6.35.31,13.2.94,20.55,10.34-11.83,21.05-23.29,32.14-34.38,4.98-4.98,8.16-8.09,9.53-9.34,1.49-1.24,3.3-1.87,5.42-1.87h.38c2.36,0,4.39.84,6.07,2.52Z"/>
      </g>
      <g>
        <path d="M760.85,1131.53l1.76-2.91c3.68,3.83,10.49,6.74,17.69,6.74,10.72,0,15.47-4.67,15.47-10.49,0-16.08-33.47-6.43-33.47-26.19,0-7.58,5.82-14.24,18.99-14.24,5.9,0,12.02,1.84,16.16,4.83l-1.46,3.14c-4.44-3.06-9.88-4.52-14.7-4.52-10.42,0-15.09,4.82-15.09,10.72,0,16.08,33.47,6.59,33.47,26.04,0,7.58-6.05,14.17-19.3,14.17-7.96,0-15.62-2.98-19.53-7.27Z"/>
        <path d="M837.73,1088.34h-19.3v-3.52h42.5v3.52h-19.3v50.09h-3.91v-50.09Z"/>
        <path d="M884.35,1115.68v-30.86h3.91v30.71c0,13.4,6.43,19.68,17.61,19.68s17.54-6.28,17.54-19.68v-30.71h3.9v30.86c0,15.32-8.19,23.13-21.52,23.13s-21.45-7.81-21.45-23.13Z"/>
        <path d="M960.84,1084.82h21.21c17,0,28.49,11.18,28.49,26.8s-11.49,26.81-28.49,26.81h-21.21v-53.61ZM981.75,1134.9c15.16,0,24.89-9.65,24.89-23.28s-9.73-23.28-24.89-23.28h-17v46.56h17Z"/>
        <path d="M1039.4,1084.82h3.9v53.61h-3.9v-53.61Z"/>
        <path d="M1072.17,1111.62c0-15.54,11.87-27.18,27.88-27.18s27.87,11.56,27.87,27.18-11.95,27.19-27.87,27.19-27.88-11.64-27.88-27.19ZM1123.94,1111.62c0-13.55-10.26-23.58-23.89-23.58s-23.97,10.03-23.97,23.58,10.26,23.59,23.97,23.59,23.89-10.03,23.89-23.59Z"/>
      </g>
      <g>
        <path d="M310.64,830c2.49,0,4.55.84,6.18,2.53,1.62,1.68,2.43,3.72,2.43,6.09,0,1.25-.25,2.37-.75,3.37-6.24,14.23-20.63,38.64-43.16,73.21-22.53,34.58-46.72,68.59-72.56,102.05-26.34,34.08-50.31,61.91-71.9,83.51-18.48,18.47-35.08,32.21-49.81,41.19-13.73,8.36-25.91,12.55-36.51,12.55h-3c-8.87-.63-16.29-4-22.28-10.11-6.24-6.12-10.92-14.98-14.04-26.59-3.49-12.61-5.24-27.78-5.24-45.5,0-21.97,2.69-48.12,8.05-78.46,8.61-48.43,23.41-102.61,44.38-162.53,20.47-58.67,43.25-113.06,68.34-163.18,25.09-50.12,48.5-87.91,70.22-113.38,3.75-4.37,7.36-8.36,10.86-11.98,14.48-14.48,27.65-21.72,39.51-21.72,1,0,2.06.06,3.19.19,11.23,1.12,20.53,5.37,27.9,12.73,3,3,5.49,6.18,7.49,9.55,5.12,8.86,7.99,20.16,8.61,33.89.12,2.25.19,4.49.19,6.74,0,12.48-1.62,26.65-4.87,42.5-4.75,23.59-12.8,49.5-24.15,77.71-.63,1.62-1.66,2.97-3.09,4.03-1.44,1.06-3.09,1.59-4.96,1.59-2.13,0-4-.81-5.62-2.43-1.37-1.25-2.25-2.81-2.62-4.68-.13-.75-.19-1.43-.19-2.06,0-1,.25-2.18.75-3.56,10.23-25.21,17.79-49.49,22.66-72.84,3.24-15.48,4.87-29.02,4.87-40.63,0-17.6-3.74-30.15-11.23-37.64-4.49-4.49-10.36-7.12-17.6-7.86h-1.12c-2.75,0-5.87.81-9.36,2.43-5.74,2.87-11.98,7.68-18.73,14.42-2.75,2.62-5.99,6.18-9.74,10.67-20.72,24.59-43.38,61.57-67.97,110.94-24.59,49.37-46.88,102.77-66.84,160.19-24.09,69.28-39.82,130.01-47.18,182.19-2.87,19.85-4.31,37.64-4.31,53.36s1.5,29.71,4.49,40.44c2.62,8.99,5.93,15.48,9.92,19.47,3.37,3.37,7.55,5.06,12.55,5.06,6.99,0,15.47-2.87,25.47-8.61,14.1-8.12,30.58-21.6,49.43-40.44,21.22-21.1,44.56-48.19,70.03-81.26,25.09-32.58,48.81-66.04,71.15-100.36,22.34-34.33,36.51-58.23,42.51-71.71.37-1,.94-1.87,1.69-2.62,1.62-1.62,3.62-2.43,5.99-2.43Z"/>
        <path d="M416.8,823.26c-6.07,10.11-19.97,28.1-31.82,35.87-7.59,4.98-12.15,7.11-16.34,8.6-5.07,1.65-9.45,2.49-14.32,2.49-3.5,0-8.6-.97-10.72-2.59-4.99-3.24-7.49-9.3-7.49-18.16,0-3.62.43-7.8,1.31-12.54-4,4.62-7.62,8.55-10.86,11.8-5.99,5.99-10.86,9.68-14.6,11.05-1.38.5-2.69.75-3.93.75-.87,0-1.87-.19-3-.56-.25,0-.56-.12-.94-.37-1.38-.62-2.5-1.37-3.37-2.25-2-2-3-4.56-3-7.68,0-3.49,1.5-7.99,4.49-13.48,3.49-6.62,8.05-12.73,13.67-18.35,6.74-6.74,13.35-11.05,19.85-12.92.12,0,.25-.06.38-.19,1.87-.25,3.68-.5,5.43-.75,3-3.75,5.36-6.8,7.11-9.18,1.62-2.37,3.87-3.56,6.74-3.56,2.37,0,4.34.87,5.9,2.62,1.56,1.75,2.34,3.81,2.34,6.18,0,.75-.06,1.44-.19,2.06-.5,1.87-1.66,6.12-3.47,12.73-1.81,6.62-3.21,12.05-4.21,16.29-1,4.24-1.75,8.43-2.25,12.54-.25,1.87-.38,3.62-.38,5.24,0,1.37.12,2.56.38,3.56.81.73,4.78.41,8.96-1.44,2.98-1.17,12.49-5.52,21.01-12.68,9.72-8.17,18.65-31.24,22.78-36.2,2.31-3.42,9.42,12.11,11.67,12.11.38,0,2.78,1.9,3.04,1.9,2.25.13,1.89-.56,3.26.81.12.25,3.64,1.65,3.89,1.9"/>
        <path d="M455.19,797.23c2.25,0,4.18.87,5.8,2.62,1.62,1.75,2.43,3.87,2.43,6.37,0,1.12-.25,2.19-.75,3.18-6.99,16.48-12.24,31.33-15.73,44.56-1.25,4.87-3.09,12.42-5.52,22.66-2.44,10.24-3.72,16.35-3.84,18.35-.12.75-.19,1.5-.19,2.25,0,1.75.19,3.12.56,4.12,1.87-.25,4.43-1.06,7.68-2.43,1.87-.75,15.66-13.01,41.38-36.79,25.71-23.78,39.13-36.11,40.26-36.98,1.37-1,3.06-1.5,5.06-1.5,2.74,0,4.93.81,6.55,2.43.25.25.5.5.75.75,1,1.38,1.5,3.06,1.5,5.06,0,3-1.06,5.31-3.18,6.93-1.5,1.25-8.89,8.08-22.19,20.5-13.29,12.42-26.4,24.47-39.32,36.14-12.92,11.67-20.57,18-22.94,19.01-6.49,2.74-11.92,4.12-16.29,4.12-1.5,0-3.19-.31-5.06-.94-4.74-1.37-7.93-4.24-9.55-8.61-1.25-2.87-1.87-6.62-1.87-11.23,0-3.62,2.93-18.29,8.8-44,2.12-8.99,5.3-19.35,9.55-31.08-4.74,1.62-8.99,2.43-12.73,2.43s-6.81-.62-9.55-1.87c-6.36-3.12-10.05-8.99-11.05-17.6v-.56c0-2.5.94-4.62,2.81-6.37,1.5-1.62,3.31-2.43,5.43-2.43,2.49,0,4.68.94,6.55,2.81,1.37,1.38,2.12,3,2.25,4.87.25,1.62.56,2.69.94,3.18.12,0,.25.06.37.19.12,0,.25.06.38.19.5.13,1.25.19,2.25.19.75,0,1.62-.06,2.62-.19,5.37-.87,12.48-3.93,21.35-9.17,1.37-.75,2.87-1.12,4.49-1.12Z"/>
        <path d="M550.12,766.34c1,0,1.81.19,2.44.56,1.74.5,3.21,1.53,4.4,3.09,1.18,1.56,1.78,3.34,1.78,5.34,0,.87-.19,2-.56,3.37-.63,2.25-1.78,6.12-3.46,11.61-1.69,5.5-3.21,10.61-4.59,15.35,7.24-2.12,13.79-3.18,19.66-3.18,12.98,0,22.47,4.62,28.46,13.86,3.87,5.99,5.8,13.36,5.8,22.09,0,2-.12,4.12-.37,6.37,9.98-2.5,20-5.58,30.05-9.27,10.05-3.68,16.69-7.14,19.94-10.39,1.75-1.62,3.77-2.43,6.09-2.43s4.31.84,5.99,2.53c1.68,1.69,2.53,3.68,2.53,5.99s-.81,4.34-2.43,6.09c-1.12,1.12-2.25,2.19-3.37,3.18-3.87,3.87-10.39,7.84-19.57,11.89-9.18,4.06-18.41,7.8-27.71,11.24-9.3,3.43-15.38,6.15-18.26,8.14-4.99,12.11-11.86,22.16-20.59,30.15-7.12,6.37-14.79,9.55-23.03,9.55-6.24,0-12.17-2.25-17.79-6.74-.5-.37-1-.81-1.5-1.31-2.87-2.87-4.31-5.93-4.31-9.17,0-2.87,1-5.37,3-7.49,1.12-1,2.56-1.99,4.31-3,1.37-.75,4.93-2.25,10.67-4.49,13.61-5.62,25.28-11.73,35.02-18.35,2.87-7.74,4.3-14.85,4.3-21.35,0-5.62-1.06-10.05-3.18-13.29-.63-1.12-1.25-1.93-1.87-2.43-2.75-2.74-6.87-4.12-12.36-4.12h-1.69c-6.62.37-14.42,2.37-23.4,5.99-12.98,45.19-27.09,95.87-42.32,152.04-16.35,61.29-28.15,108.66-35.39,142.12-5.87,27.09-9.11,46.93-9.74,59.54-.12,1.37-.19,2.68-.19,3.93,0,2,.12,3.62.37,4.87,1.75,1.62,2.62,3.75,2.62,6.37s-.94,4.62-2.81,6.37c-1.62,1.62-3.43,2.43-5.43,2.43-1,0-2-.31-3-.94-2.5-1-4.49-2.75-5.99-5.24-.12-.13-.25-.31-.37-.56-1-2-1.62-4.31-1.87-6.93-.12-1.62-.19-3.43-.19-5.43,0-4.75.44-10.86,1.31-18.35,4.62-35.45,19.54-100.24,44.75-194.36,12.11-46.19,25.84-95.74,41.19-148.67,6.24-21.59,10.92-37.57,14.04-47.93.25-.75.43-1.37.56-1.87l.37-.75c.38-1.37,1.06-2.56,2.06-3.56,1.62-1.62,3.49-2.43,5.62-2.43Z"/>
        <path d="M694.11,776.26c4.12,0,7.49,1.66,10.11,4.96,2.62,3.31,3.93,7.09,3.93,11.33,0,1.12-.06,2.31-.19,3.56-.75,4.37-2.75,9.24-5.99,14.61-4,6.49-9.86,13.73-17.6,21.72-1,1-1.94,2-2.81,3-8.74,8.61-17.35,16.35-25.84,23.22-2.87,8.61-4.43,15.67-4.68,21.16v.94c0,3.25.5,5.37,1.5,6.37l.19.19c.87.37,2.06.56,3.56.56,2.37,0,5.24-.5,8.61-1.5,7.61-2,17.35-6.11,29.21-12.36,24.21-12.73,49.62-29.15,76.21-49.25,1.37-1,3-1.5,4.87-1.5,3,0,5.3,1.06,6.93,3.18,1,1.38,1.5,3.06,1.5,5.06,0,3-1.06,5.31-3.18,6.93-17.35,13.23-35.39,25.59-54.11,37.07-17.85,10.86-32.71,18.66-44.56,23.41-10.11,3.99-18.54,5.99-25.28,5.99s-12.24-1.87-16.1-5.62c-3.99-4.12-5.99-10.17-5.99-18.16,0-2,.06-3.87.19-5.62.87-7.74,2.75-15.79,5.62-24.15,0-.37.06-.68.19-.94,4.37-12.36,10.05-24.62,17.04-36.79,6.99-12.17,13.85-21.63,20.6-28.37,4.49-4.62,8.61-7.43,12.36-8.43,1.25-.37,2.5-.56,3.75-.56ZM676.51,815.96c5.37-6.11,9.3-11.36,11.8-15.73.25-.37.5-.81.75-1.31-1.12,1.25-2.94,3.5-5.43,6.74-2.37,3.12-4.75,6.55-7.12,10.3Z"/>
        <path d="M927.04,822.51c2.37,0,4.43.81,6.18,2.43,1.75,1.62,2.62,3.62,2.62,5.99,0,3.37-1.5,5.99-4.49,7.86-26.84,15.73-48.19,25.84-64.04,30.33-6.99,2-13.17,3-18.54,3s-10.05-.94-14.04-2.81c-3-1.37-5.56-3.18-7.68-5.43-3.12-3-5.62-6.99-7.49-11.98-1.38-3.99-2.62-9.36-3.75-16.1-.75-5.24-1.56-8.99-2.44-11.23-2,1.87-4.81,5.31-8.42,10.3-2.87,4-9.3,14.04-19.29,30.15-.5.87-1.22,2.06-2.15,3.56-.94,1.5-1.53,2.5-1.78,3-4.87,7.74-8.43,13.29-10.67,16.66-.12,0-.22.06-.28.19-.07.13-.09.25-.09.37-1,1.5-2.13,2.37-3.37,2.62-.63.37-1.44.56-2.43.56h-1.5c-1,0-1.97-.28-2.9-.84-.94-.56-1.53-.9-1.78-1.03-1.5-.75-2.43-2-2.81-3.75-.25-.87-.37-1.62-.37-2.25v-1.68c0-1.62.19-3.87.56-6.74.5-3.99,1.44-9.05,2.81-15.17,2.62-12.73,5.8-25.47,9.55-38.2,4.37-16.35,8.05-28.65,11.05-36.89,3.87-10.61,7.3-17.41,10.3-20.41,1.99-1.99,4.18-3,6.55-3,2.87,0,5.18,1.37,6.93,4.12.87,1.25,1.31,2.69,1.31,4.31,0,2.5-.94,4.62-2.81,6.37-3.87,7.12-9.55,24.28-17.04,51.49-1.38,5.12-2.18,8.18-2.43,9.17,7.11-11.36,13.11-19.41,17.98-24.15,4.37-4.49,8.55-6.99,12.54-7.49.75-.12,1.43-.19,2.06-.19,3.37,0,6.24,1.06,8.61,3.18,3,2.62,5.24,6.24,6.74,10.86.87,2.87,1.75,7.37,2.62,13.48,1.5,9.86,3.56,16.17,6.18,18.91,2,2,5.18,3,9.55,3s9.92-1,16.29-3c14.48-4.49,33.77-13.92,57.86-28.27,1.37-.87,2.81-1.31,4.3-1.31Z"/>
        <path d="M937.64,827.01c-5.93,31.08-9.93,47.78-14.73,73.31-4.81,25.53-7.4,39.85-7.77,42.97-.62,5.62-.94,10.17-.94,13.67,0,1.12.06,1.99.19,2.62.75,1.37,1.12,2.81,1.12,4.31,0,2.5-.75,4.49-2.25,5.99-1.87,1.87-3.87,2.81-5.99,2.81-.87,0-1.81-.19-2.81-.56-.25-.13-.94-.5-2.06-1.12-.5-.25-1.06-.69-1.69-1.31-1.75-1.62-2.81-4.06-3.19-7.3-.25-1.75-.37-3.75-.37-5.99,0-4.12.44-9.74,1.31-16.85,1.75-14.98,8.16-49.07,9.93-58.03,14.42-73.02.66-9.38,12.65-61.43,13.48-58.92,25.4-109.79,35.76-152.6-3.25.25-8.71.84-16.38,1.78-7.68.94-14.83,1.72-21.44,2.34-6.62.63-13.51,1.12-20.69,1.5-7.18.37-13.23.19-18.16-.56-4.93-.75-8.15-2.12-9.64-4.12-1.5-1.99-2.25-3.81-2.25-5.43,0-2.62.94-4.87,2.81-6.74,1.37-1.5,3.06-2.25,5.05-2.25,1.25-.12,4.65-.28,10.2-.47,5.56-.19,15.01-.59,28.37-1.22,13.36-.62,28.9-1.43,46.62-2.43.87-3.24,3.62-14.54,8.24-33.89.25-2.12,1.22-3.87,2.9-5.24,1.69-1.37,3.59-2.06,5.71-2.06h.75c1.74,0,3.37.75,4.87,2.25,1.12,1.12,1.93,2.5,2.43,4.12.25,1,.38,1.94.38,2.81,0,.63-.06,1.44-.19,2.43-.12.37-2.56,9.92-7.3,28.65,88.25-4.62,159.03-7.74,212.33-9.36,28.21-.87,50.8-1.31,67.78-1.31h5.24c15.23,0,26.71,3.87,34.45,11.61,2,2,3,4.25,3,6.74,0,1.25-.56,2.28-1.69,3.09-1.12.81-2.06.97-2.81.47-3.25-2.25-11.92-3.84-26.03-4.77-14.11-.94-27.93-1.37-41.47-1.31-13.55.06-27.5.28-41.85.66-25.34.87-65.16,2.97-119.46,6.27-54.3,3.31-85.51,5.15-93.62,5.52-19.85,83.01-26.35,110.13-30.84,129.23M898.47,939.54c1.75-14.98,8.16-49.07,9.93-58.03,10.12-55.84,7.53-34.89,12.65-61.43"/>
        <path d="M1014.49,776.26c4.12,0,7.49,1.66,10.11,4.96,2.62,3.31,3.93,7.09,3.93,11.33,0,1.12-.06,2.31-.19,3.56-.75,4.37-2.75,9.24-5.99,14.61-4,6.49-9.86,13.73-17.6,21.72-1,1-1.93,2-2.81,3-8.74,8.61-17.35,16.35-25.84,23.22-2.87,8.61-4.43,15.67-4.68,21.16v.94c0,3.25.5,5.37,1.5,6.37l.19.19c.87.37,2.06.56,3.56.56,2.37,0,5.24-.5,8.61-1.5,7.61-2,17.35-6.11,29.21-12.36,52.3-25.71,63.58-63.94,82.17-76.87,1.37-1,3.85,7.1,5.73,7.1,3,0,2.43,6.79,4.05,8.91,1,1.38,3.57,2.38,3.57,4.38,0,3-9.39.94-11.51,2.56-6.68,14.3-42.07,47.75-51.47,54.23-23.53,16.21-33.26,21.14-45.12,25.88-10.11,3.99-18.31,4.71-25.05,4.71s-12.23-1.87-16.1-5.62c-3.99-4.12-5.99-10.17-5.99-18.16,0-2,.06-3.87.19-5.62.87-7.74,2.75-15.79,5.62-24.15,0-.37.06-.68.19-.94,4.37-12.36,10.05-24.62,17.04-36.79,6.99-12.17,13.85-21.63,20.59-28.37,4.49-4.62,8.61-7.43,12.36-8.43,1.25-.37,2.49-.56,3.75-.56ZM996.88,815.96c5.37-6.11,9.3-11.36,11.8-15.73.25-.37.5-.81.75-1.31-1.12,1.25-2.93,3.5-5.43,6.74-2.37,3.12-4.75,6.55-7.12,10.3Z"/>
        <path d="M1141.25,797.23c2.25,0,4.18.87,5.8,2.62,1.62,1.75,2.44,3.87,2.44,6.37,0,1.12-.25,2.19-.75,3.18-6.99,16.48-12.24,31.33-15.73,44.56-1.25,4.87-3.09,12.42-5.52,22.66-2.43,10.24-3.72,16.35-3.84,18.35-.12.75-.19,1.5-.19,2.25,0,1.75.19,3.12.56,4.12,1.87-.25,4.43-1.06,7.68-2.43,1.87-.75,15.66-13.01,41.38-36.79,25.71-23.78,39.13-36.11,40.26-36.98,1.37-1,3.06-1.5,5.05-1.5,2.74,0,4.93.81,6.55,2.43.25.25.5.5.75.75,1,1.38,1.5,3.06,1.5,5.06,0,3-1.06,5.31-3.19,6.93-1.5,1.25-8.89,8.08-22.19,20.5-13.29,12.42-26.4,24.47-39.32,36.14-12.92,11.67-20.57,18-22.94,19.01-6.49,2.74-11.92,4.12-16.29,4.12-1.5,0-3.18-.31-5.05-.94-4.75-1.37-7.93-4.24-9.55-8.61-1.25-2.87-1.87-6.62-1.87-11.23,0-3.62,2.93-18.29,8.8-44,2.12-8.99,5.31-19.35,9.55-31.08-4.75,1.62-8.99,2.43-12.73,2.43s-6.81-.62-9.55-1.87c-6.36-3.12-10.05-8.99-11.05-17.6v-.56c0-2.5.94-4.62,2.81-6.37,1.5-1.62,3.31-2.43,5.43-2.43,2.49,0,4.68.94,6.55,2.81,1.37,1.38,2.12,3,2.25,4.87.25,1.62.56,2.69.93,3.18.12,0,.25.06.38.19.12,0,.25.06.37.19.5.13,1.25.19,2.25.19.75,0,1.62-.06,2.62-.19,5.36-.87,12.48-3.93,21.35-9.17,1.37-.75,2.87-1.12,4.49-1.12Z"/>
      </g>
    </g>
  </g>
</svg>